<?xml version="1.0" encoding="utf-8"?>
<!-- Generator: Adobe Illustrator 19.0.0, SVG Export Plug-In . SVG Version: 6.00 Build 0)  -->
<svg version="1.1" baseProfile="tiny" id="Layer_1" xmlns="http://www.w3.org/2000/svg" xmlns:xlink="http://www.w3.org/1999/xlink"
	 x="0px" y="0px" viewBox="-205 351.5 200.9 90.6" xml:space="preserve">
<title>Asset 3</title>
<g>
	<path fill="#FFFFFF" d="M-175.4,393.1c5.6,1.3,8.3,4.3,8.3,7c0,11.1-19.5,12.9-27.6,12.9c-2.2,0-9,0-9-3.2c0-1.2,2-4.1,2.9-5
		c0.7-0.6,4-1.6,4.8-1.6c0.3,0,0.4,0.1,0.4,0.4c0,0.6-0.6,0.8-1,1.1c-0.3,0.2-0.6,0.5-1,0.8v0.1c20,0.7,25.4-5,25.4-5.9
		c0-2.9-15.5-5.1-18.2-5.5c-2.8-0.4-5.7-1.3-5.7-4.7c0-1.8,0.9-5.9,1.8-7.4c1.7-2.9,11.8-8.2,24.1-8.2c2.3,0,4.7,0.3,7,0.8
		c1.3,0.3,1.5,0.7,1.5,1.8c0,4.1-1.4,5.1-4.7,6.4c-2.4,0.9-2.9,1.2-5,2.7c-0.4,0.2-1,0.6-1.4,0.6c-0.6,0-0.9-0.3-0.9-0.8
		c0-0.1,1.1-1.8,4.1-3.9l-0.1-0.1c-14.4,0.5-20.6,5.7-20.7,7C-190.3,389.1-191,389.5-175.4,393.1z"/>
	<path fill="#FFFFFF" d="M-155.1,408.4c-1.1,0.8-4.6,3.7-5.9,3.7c-1.6,0-4.8-3.7-4.9-6.6c-0.2-7,14.3-14.1,20.8-14.3
		c2.6-0.1,3.6,2,3.6,2.7c0,0.7-1.5,1.2-2,1.4c1.1,0.4,1.6,1.1,1.6,2.3c0,1.8-4.9,5.7-4.9,8.3c0,1,0.8,1.3,1.7,1.3
		c2.3,0,5.5-2.9,7.9-4.5l0.4,2.1c-2.4,2.7-9.9,8.7-12.6,8.7c-1.8,0-2.7-1.3-2.7-3c0-1.8,1.3-4.8,2.1-6.3l-0.1-0.1L-155.1,408.4z
		 M-161.9,407c0.1,0.3,0.3,1.3,1.1,1.1c1.1-0.2,2.9-0.1,13.9-11.2l-0.1-0.1C-160.2,400.8-161.9,404.2-161.9,407z"/>
	<path fill="#FFFFFF" d="M-118.1,408.9c-1.3,1.2-3.3,3.5-5.2,3.5c-1.3,0-2.4-1-2.5-2.3c-0.1-1.6,1.3-4.2,4.9-9.7
		c0.1-0.1,0.3-0.6,0.3-0.7c0-0.2-0.2-0.4-0.4-0.4c-0.6,0-1.8,1.3-2.2,1.7c-2.9,3.1-6,6.4-8.7,9.7c-0.6,0.7-1.4,1.6-2.4,1.6
		c-2.7,0-3.5-4.4-3.5-6.4c0.1-5.5,6-13,9.3-12.5c0.8,0.1,2.5,0.1,2.5,1.3c0,1.1-1.6,2.8-2.2,3.6c-1,1.2-2.2,2.2-3.1,3.4
		c-0.6,0.8-1.6,1.7-1.6,2.9c0,0.1,0.2,0.5,0.4,0.5c0.3,0,1-0.7,1.1-0.9c2.7-2.9,12.7-12.8,16.3-12.8c1.5,0,2.3,1.1,2.3,2.6
		c0,2.5-4,7-5.2,9.2l0.1,0.1l12.4-9.8c0.6-0.4,2-1.6,2.6-1.6c0.4,0,1,1.3,1.2,1.6c0.4,0.6,1,1.5,1,2.2c0,1-1.1,2.2-1.7,2.9
		c-4.4,4.8-4.7,5.7-4.8,7c-0.1,0.7,0.7,1.6,1.3,1.4c1.2-0.3,1.8-0.3,8.7-5l0.3,2.6c-2.6,2.1-10.7,8.7-13.8,8.7
		c-1.7,0-2.9-1.6-2.9-3.2c0-2.8,2.7-6.8,4.1-9.1l-0.1-0.1L-118.1,408.9z"/>
	<path fill="#FFFFFF" d="M-76.6,403.9c-3.4,4-9.6,9.2-15.1,9.2c-4.1,0-6-3.6-6.1-7.3c-0.2-7.3,7.9-14.8,15.1-14.8c1.8,0,4,0.4,4,2.7
		c0,2.7-2.7,6.9-13.5,10.4l-0.1,1.2c-0.2,2.1,1.7,2.9,3.5,2.9c4,0,8.7-4.1,11.6-6.4L-76.6,403.9z M-83.5,394.9
		c0-0.4-0.3-0.7-0.7-0.6c-2.8,0.7-6,3.4-7.5,7.1C-86.8,399.7-83.4,395.9-83.5,394.9z"/>
	<path fill="#FFFFFF" d="M-56.6,403.9c-3.4,4-9.6,9.2-15.1,9.2c-4.1,0-6-3.6-6.1-7.3c-0.2-7.3,7.9-14.8,15.1-14.8c1.8,0,4,0.4,4,2.7
		c0,2.7-2.7,6.9-13.5,10.4l-0.1,1.2c-0.2,2.1,1.7,2.9,3.5,2.9c4,0,8.7-4.1,11.6-6.4L-56.6,403.9z M-63.5,394.9
		c0-0.4-0.3-0.7-0.7-0.6c-2.8,0.7-6,3.4-7.5,7.1C-66.8,399.7-63.5,395.9-63.5,394.9z"/>
	<path fill="#FFFFFF" d="M-53.9,405.2c2.7-2.2,12.9-11.1,16-11.1c1.3,0,2.7,1.4,2.7,2.7c0,1.1-2.2,3.5-2.9,4.3
		c-3.5,4.2-3.3,4.4-3.3,4.9c0,0.7,0.6,1.2,1.2,1.2c1.8,0,5.9-3,7.5-4.1l0.3,2.3c-2.6,2-9.3,7.4-12.4,7.4c-1.7,0-2.6-1.5-2.6-3
		c0-3.5,3.9-7.8,5.9-10.4l-0.1-0.1c-9.6,6.5-12.4,12.5-14.1,12.5c-2,0-2.2-4.4-2.2-5.6c0-3.9,1.5-6.5,3.4-9.7
		c6.6-10.9,17.7-20.7,19.6-20.7c0.9,0,2.4,0.4,2.4,1.5c0,3.8-17.8,22.2-21.4,25.8V405.2z"/>
	<path fill="#FFFFFF" d="M-23.6,408.4c-1.1,0.8-4.6,3.7-5.9,3.7c-1.6,0-4.8-3.7-4.9-6.6c-0.2-7,14.3-14.1,20.8-14.3
		c2.6-0.1,3.6,2,3.6,2.7c0,0.7-1.5,1.2-2,1.4c1.1,0.4,1.6,1.1,1.6,2.3c0,1.8-4.9,5.7-4.9,8.3c0,1,0.8,1.3,1.7,1.3
		c2.3,0,5.5-2.9,7.9-4.5l0.4,2.1c-2.4,2.7-9.9,8.7-12.6,8.7c-1.8,0-2.7-1.3-2.7-3c0-1.8,1.3-4.8,2.1-6.3l-0.1-0.1L-23.6,408.4z
		 M-30.4,407c0.1,0.3,0.3,1.3,1.1,1.1c1.1-0.2,2.8-0.1,13.9-11.2l-0.1-0.1C-28.7,400.8-30.4,404.2-30.4,407z"/>
</g>
</svg>
